<svg version="1.0" xmlns="http://www.w3.org/2000/svg" width="265.333" height="265.333" viewBox="0 0 199 199"><path d="M76.6 1.5c.4.8 1.1 1.5 1.6 1.5.6 0 .5-.6-.2-1.5C77.3.7 76.6 0 76.4 0c-.2 0-.1.7.2 1.5z"/><path d="M80.8 1.6c1.1.8 1.9.9 2.3.2.4-.7.9-.6 1.3.1.8 1.3.8 1.2-5.9 1.6-10.7.5-13.7.9-14.2 1.9-.3.5-.1.6.5.2.7-.4 1.2-.1 1.2.6 0 1 .3.9 1.1-.2.8-1.2 1-1.2.7-.1-.4 1.5-1.9 1.9-8 2.3-2.9.2-3.8.7-3.8 2.2 0 1.2-.5 1.6-1.5 1.2-1.6-.6-3.9 2.6-2.7 3.9.4.5.2.5-.5.1s-1-1.2-.7-2c.3-.7-.1-1.3-.9-1.3s-1.4.9-1.3 2.1c.1 1.5-.5 2.1-2.4 2.1-1.4 0-2.5.5-2.5 1.2 0 1.7-.7 2.1-4 2.6-1.7.2-3.1.9-3.1 1.5-.1.7-.2 1.7-.3 2.3 0 .6-1 .8-2.3.3-1.3-.3-2-.3-1.6.1 1.2 1.3-1.1 4.5-2.7 3.9-1.1-.4-1.3-.2-.9.9.3.8.1 1.8-.5 2.1-.6.4-.8 1.3-.5 2 .3.8.1 1.7-.4 2-.5.3-.9-.2-.8-1.1 0-.9-.5-1.8-1.3-2.1-.9-.3-1.1 0-.7.7.4.7.3 1.7-.2 2.4s-.8 2-.7 3c.2.9 0 1.5-.5 1.2-1.7-1.1-3.8.6-3.2 2.7.4 1.7.2 2-1.5 1.6-1.6-.4-2.1-.1-2.1 1.6-.1 1.1-.3 3-.6 4.1-.2 1.1-.5 2.2-.5 2.5-.1.2-.7-.2-1.3-.8-1-1-1-1.5.2-2.3 1.3-.9 1.3-1 0-.6-.8.2-1.6 1-1.6 1.8-.1.8-.3 1.8-.4 2.4-.1.5-.2 1.7-.1 2.7.1.9-.3 2-1 2.4-.7.4-.9.3-.6-.3.3-.5.1-1-.6-1-1.1 0-1.8 3.2-2 9.4C7.6 67.1 7 68 6 68c-1.7 0-1.7 0-2.1 10.7-.3 6.3-.5 6.9-1.7 5.2-.7-1-1-2.4-.7-2.9.3-.6.2-1-.4-1-.5 0-.9 1.3-.9 3 .1 1.6.4 2.7.8 2.5.9-.6 2.3 2.5 1.5 3.3-.3.3-.5 0-.5-.6 0-.7-.4-1.2-.9-1.2-1.6 0-.9 32.7.8 34.2 1.1 1.1 1.2 1 .2-.9-1.4-2.8-1.4-3.6.2-2.7.8.5.8.2-.2-.9-.9-1.1-1-1.7-.2-1.7.6 0 1.1.3 1.2.7 0 .5.2 1.7.4 2.8.2 1.1.5 4.3.6 7.2.1 2.9.6 5.8 1.1 6.5.4.7.8.8.8.3.1-2.2 2 2.2 2 4.5 0 1.5.6 3.2 1.3 3.9.6.8.7 1.1.1.8-.6-.3-1.1 0-1.1.8 0 1 .5 1.1 1.7.5 1.2-.7 1.6-.4 1.7 1.3.2 4.4 1 7.1 2.4 7.5.8.2 1 0 .4-.5-1.5-1.2-1.6-3-.1-3 .7 0 1.3.5 1.3 1.1-.1 4.8.5 6.4 2.4 6.9 1.5.4 2 1.1 1.6 2.1-.4.9-.2 1.6.4 1.6.6 0 .7.6.3 1.2-.5.9-.2.9.9-.1.9-.7 1.7-1.2 1.8-1 0 .2.3 1.3.6 2.4.2 1.1.5 2.8.6 3.7.1.9.4 1.5.8 1.2 1.1-.6 4 2.6 3.4 3.7-.4.5.1.9 1 .9 2.3 0 4.9 2.7 3.2 3.3-.6.3-.3.5.8.5 4.7.1 6.7 1.5 4.8 3.2-.4.3-.3 0 0-.6s0-1.1-.7-1.1-1.3.6-1.3 1.3c0 .6.7 1.1 1.6.9.9-.1 2.5.5 3.5 1.4 1.1.9 1.6 1 1.2.3-.4-.6-.3-1.2.2-1.2 1.6 0 2.2 1.3 1.1 2.7-.9 1-.5 1.3 2.2 1.4 1.9.1 3.7.1 4.1 0 .4 0 .5.6.1 1.5-.5 1.3-.7 1.3-1.4.2-.5-.7-.9-.8-.9-.2 0 1.8 1.3 2.4 2.7 1.2 1.1-.9 1.3-.8 1.1.3-.2.9.4 1.3 1.9 1.1 1.4-.2 2.3.4 2.7 1.5.6 1.8 1.5 2 9 2.6 1.1.1 2.1.9 2.3 1.7.4 1.3.3 1.3-.6 0-.8-1.2-1.3-1.2-2.3-.2-.6.6-1 1.3-.8 1.3.8.2 6.3.7 9.8.8 2.2.1 3.1.5 2.6 1.3-.4.7-.3.8.4.4 2.1-1.3 5.1-1.5 5.8-.4.4.6.3.8-.2.5-.6-.3-1.5-.2-2.2.1-.6.4 7 .8 16.9 1 13.2.1 17.8-.1 17.3-1-.5-.7-.3-.8.7-.2 1.8 1.1 8.9 1.2 8.2.1-.3-.4-1.1-.6-1.9-.3-.7.3-1.6.2-1.8-.3-.3-.4 1.4-.8 3.7-.9 2.3-.1 5.4-.2 7-.2 1.8-.1 2.5-.5 2.1-1.3-.5-.8-.3-.8.7.1 1.5 1.4 3.3 1.6 2.5.3-.4-.5-.3-1.1.1-1.4.5-.2.3-.3-.3-.1-.6.1-1.6-.1-2.3-.5-.7-.5 1.3-.8 4.4-.9 3.2 0 6.2-.5 6.9-1.2.8-1 .8-1.1-.1-.6-.7.4-1.3.3-1.3-.2 0-1.2 4.9-3 7.2-2.7.9.2 1.9-.4 2.2-1.2.3-.8.1-1.1-.4-.8-.6.3-1 .1-1-.5 0-.7 1.2-1 2.8-.8 2.2.2 2.7-.1 2.6-1.9-.1-1.4.3-2 1.2-1.6.8.3 1.2.9.9 1.3-.3.5-.1 1.1.4 1.5.6.3.8-.3.6-1.5-.4-1.9.5-2.5 3.4-2 .9.1 1.2-.5.8-1.9-.4-1.5.1-2.1 1.7-2.3 1.3-.2 2-1 2-2.1-.2-1.3.4-1.7 2-1.5 1.5.2 2.1-.2 2.1-1.7 0-1.3.8-2.1 2.2-2.3 1.4-.2 2.3-1.1 2.5-2.5.2-1.4.9-2.1 2-1.9 1.2.2 1.6-.3 1.3-1.8-.2-1.1 0-2.1.6-2.1.5-.1 1.5-.2 2.1-.3.7 0 1.4-1.4 1.5-3 .3-4.2 1-5.6 2.6-5 1 .3 1.4-.5 1.5-3.2.2-3.9 2.1-6.2 3.4-4.1.6 1 1.3-4.9 1.1-10-.1-.7.4-1 .9-.7.5.4.7 1.5.4 2.7-.4 1.5-.2 1.7.6.9 1.6-1.6 1.9-4.2.5-4.2-.8 0-.7-.3.1-.9.8-.5 1.4-3 1.5-6.4.1-3 .5-5.3.9-5.1.4.2.5 1.3.3 2.4-.2 1.2-.1 1.8.4 1.6.4-.3.8-9.5 1-20.6.2-15.5 0-20.5-1.1-21.7-.7-.9-.8-1.4-.2-1 1 .6 1.1-.8.5-5.6-.1-.5-.5-.5-1.1-.2-.6.4-1-1.3-1-4.4 0-3.4-.4-5.1-1.2-5.1-.9 0-.8-.4.2-1.1 1.2-.8 1.2-.9-.5-.7-2 .3-2.3-.5-2.6-6.9-.1-1.5-.7-2-2.1-1.8-1 .2-1.8-.1-1.7-.8.5-4.2-.2-6.8-1.8-6.5-1 .2-1.8-.3-1.9-1-.1-.6-.2-1.8-.3-2.6 0-.9-.9-1.3-2-1.1-1.4.2-1.8-.1-1.4-1.1.3-.7.9-1.2 1.3-.9.5.3 1.1.1 1.5-.4.3-.6-.3-.8-1.5-.6-1.5.3-2-.1-2-1.7 0-1.1-.8-2.2-2-2.5-1.9-.5-2.5-1.6-2.1-3.7.1-.5-.7-.6-1.8-.3-1.5.3-2-.2-2.5-2.4-.4-2-1-2.7-2.1-2.3-1 .4-1.5 0-1.5-1.1 0-.9-.9-1.9-1.9-2.2-1.1-.3-2.1-1.3-2.4-2.4-.3-1.1-1.4-1.9-2.7-1.9-1.4 0-1.9-.4-1.4-1.3.6-.9.4-.9-.8.1-1.3 1-1.7 1-2.2-.3-.4-1.1-.2-1.4.6-.9.7.4.8.3.4-.4S156 16 155 16s-2.6-1-3.4-2.2c-1-1.4-2.5-2.1-4.6-2-2.8.1-3-.1-1.8-1.6.9-1.1 1-1.4.1-.8-.8.4-1.3.2-1.3-.4 0-.6-.5-.8-1-.5-.6.4-1.6.3-2.3-.2-.7-.5-2.8-.9-4.8-.8-2 0-3.6-.4-3.6-1 0-.7.6-1.2 1.3-1.2.7 0 1 .5.7 1-.3.6-.1.7.6.3 1.9-1.2.5-2.2-3.6-2.5-2.1-.2-4.7-.4-5.8-.5-1.4-.1-1.9-.7-1.7-2.1.2-1.6.1-1.7-.7-.5-.5.8-.8 1.7-.5 2.1.2.4-.7.6-2.1.5-2.5-.1-2.5-.1-.5-1.6 2.1-1.6 2.1-1.6-.3-1.5-1.2.1-2.9.5-3.7 1-.8.5-1.1.4-.6-.3.5-.8-4.6-1.1-17.8-1-15.1.1-18.2.4-16.8 1.4zM59 11c0 .5-.2 1-.4 1-.3 0-.8-.5-1.1-1-.3-.6-.1-1 .4-1 .6 0 1.1.4 1.1 1zM39.7 22.5c0 .6-.6 1.2-1.2 1.2s-1.2-.6-1.2-1.2.6-1.2 1.2-1.2 1.2.6 1.2 1.2zm138.8 16.6c-.4.5-1.2.9-1.8.8-.9 0-.8-.2.1-.6.6-.2.9-1 .6-1.5-.4-.7-.2-.8.5-.4.6.4.9 1.2.6 1.7zm19.2 39.4c0 .8-.4 1.2-.9.9-.5-.3-.6-1-.3-1.5.9-1.3 1.2-1.1 1.2.6zM2.6 97.6c.1.9 0 1.3-.4 1-.3-.4-.7-1.4-.8-2.2-.1-.9 0-1.3.4-1 .3.4.7 1.4.8 2.2zm.9 15.4c.3.6-.1.7-.9.4-1.8-.7-2.1-1.4-.7-1.4.6 0 1.3.4 1.6 1zM183 157.9c0 .4-.7.8-1.5.8-1.6 0-2-.9-.9-2 .8-.8 2.4.1 2.4 1.2zm-155.2 8.6c-.3.3-.9-.2-1.2-1.2-.6-1.4-.5-1.5.5-.6.7.7 1 1.5.7 1.8zM162.5 178c.3.6-.1.7-.9.4-1.8-.7-2.1-1.4-.7-1.4.6 0 1.3.4 1.6 1zm-103 11.8c-.3.3-1.1 0-1.8-.7-.9-1-.8-1.1.6-.5 1 .3 1.5.9 1.2 1.2z"/><path d="M20.6 36.8c-.3.5.1.9.9.9s1.2-.4.9-.9c-.3-.4-.7-.8-.9-.8-.2 0-.6.4-.9.8zM4.5 66c.3.5.8 1 1.1 1 .2 0 .4-.5.4-1 0-.6-.5-1-1.1-1-.5 0-.7.4-.4 1zM4 134.4c0 .2.7.7 1.6 1 .8.3 1.2.2.9-.4-.6-1-2.5-1.4-2.5-.6z"/></svg>