<svg aria-hidden="true" style="width:0;height:0;position:absolute;overflow:hidden" xmlns="http://www.w3.org/2000/svg"><defs><symbol id="icon-logo-icon" viewBox="0 0 127 32"><path d="M12.16.576C4.8 2.816.384 8.64.384 16c0 6.016 3.072 11.264 8.128 13.888 2.624 1.344 3.008.384.576-1.472C7.36 27.008 7.04 26.368 7.04 24c0-1.664-.384-3.008-.96-3.52-1.152-.96-1.28-3.456-.128-4.352.448-.384.896-1.664.96-2.816.32-4.224 4.864-8.192 9.408-8.192s9.088 3.968 9.408 8.192c.064 1.152.512 2.432.96 2.816 1.152.896 1.024 3.392-.128 4.352-.576.512-.96 1.856-.96 3.52 0 2.368-.32 3.008-2.048 4.416-2.688 2.112-1.92 2.88 1.088 1.024C28.864 26.816 32 21.12 32 16.064 32 5.952 21.504-2.24 12.16.576z"/><path d="M12.992 8c-1.152.512-2.112 1.152-2.112 1.536 0 .704 3.456 1.984 5.44 1.984s5.44-1.28 5.44-1.984c0-.768-3.968-2.496-5.568-2.496-.64.064-2.112.448-3.2.96zM45.952 11.328c-.96.256-1.152 1.088-1.152 5.696V22.4h4.544l-.192-5.568c-.192-5.824-.448-6.272-3.2-5.504zM53.44 11.648c-2.112 1.152-2.88 2.56-2.88 5.312 0 3.776 2.048 5.568 5.824 5.312 2.56-.192 2.816-.384 3.008-1.984s.064-1.728-1.92-1.6c-2.048.192-2.112.064-2.112-2.048s.128-2.24 1.984-2.048c1.536.128 2.112-.128 2.368-1.088.128-.64 0-1.536-.384-1.92-.896-.896-4.224-.896-5.888.064zM61.056 11.712c-.192.512-.256 3.008-.128 5.632l.192 4.736h4.16c3.84 0 4.16-.128 4.352-1.472.192-1.216-.064-1.408-2.048-1.408-1.28 0-2.304-.32-2.304-.64 0-.384.896-.64 1.92-.64 1.472 0 1.92-.256 1.92-1.28s-.448-1.28-1.92-1.28c-1.024 0-1.92-.32-1.92-.64 0-.384.832-.64 1.856-.64 1.792 0 3.008-1.408 2.24-2.624-.576-.96-7.936-.704-8.32.256zM73.92 11.52c-2.112.832-2.944 2.304-3.008 4.992-.064 4.608 1.792 6.208 6.592 5.76 1.856-.128 2.176-.448 2.176-1.792 0-1.408-.256-1.6-2.048-1.408-1.536.128-2.112-.064-2.432-1.088-.576-1.984.64-3.584 2.688-3.584 1.216 0 1.856-.384 1.984-1.216.448-2.048-2.816-3.008-5.952-1.664zM81.792 11.264c-.32.256-.512 2.88-.512 5.824v5.376l2.048-.192c1.6-.128 2.176-.576 2.496-1.792l.384-1.6.512 1.728c.384 1.472.832 1.792 2.496 1.792 2.752 0 3.072-.448 1.92-2.688-.704-1.408-.832-2.112-.32-2.624.832-.832.896-3.648.128-4.864-.64-1.024-8.32-1.856-9.152-.96zm5.248 3.456c0 .704-.256 1.28-.64 1.28-.32 0-.64-.576-.64-1.28s.32-1.28.64-1.28c.384 0 .64.576.64 1.28zM93.248 11.328c-.256.192-.448 2.816-.448 5.76V22.4h4.16c4.032 0 4.16-.064 4.16-1.6 0-1.344-.32-1.6-1.92-1.6-1.024 0-1.92-.32-1.92-.64 0-.384.704-.64 1.6-.64 1.152 0 1.6-.32 1.6-1.28s-.448-1.28-1.6-1.28c-.896 0-1.6-.32-1.6-.64 0-.384.896-.64 1.92-.64 1.6 0 1.92-.256 1.92-1.6 0-1.536-.192-1.6-3.712-1.6-2.048 0-3.968.192-4.16.448zM106.176 11.264c-1.152.32-4.096 8.832-3.52 10.24.512 1.28 3.392 1.152 4.16-.192.576-1.088.64-1.088 1.792 0 1.472 1.28 4.672 1.472 4.672.256 0-.384-.64-2.944-1.472-5.568-1.28-4.224-1.664-4.8-3.008-4.928-.896 0-2.048.064-2.624.192zm1.792 5.824c-.192.64-.32.256-.32-.768 0-1.088.128-1.536.32-1.152.128.448.128 1.344 0 1.92zM115.392 11.328c-.576.192-.832 1.984-.832 5.696V22.4h1.856c1.6 0 1.92-.32 2.176-1.792.256-1.664.256-1.664.768-.32.256.832.896 1.472 1.344 1.472.512 0 1.216-.64 1.536-1.472.512-1.344.576-1.344.576.384.064 1.6.256 1.792 2.048 1.6l1.984-.192.064-5.312c.128-4.928.064-5.312-1.28-5.632-2.048-.512-3.776.704-4.352 3.072l-.448 2.112-.704-2.24c-.896-3.008-2.24-3.776-4.736-2.752zM9.344 11.968c-.192.256-.384 1.088-.384 1.92 0 1.472.064 1.472 7.36 1.472s7.36 0 7.36-1.472c0-2.176-.576-2.432-2.624-1.408-2.304 1.216-7.168 1.216-9.472 0-1.024-.512-1.984-.704-2.24-.512zM7.488 17.664c-1.024 1.088.704 1.536 5.696 1.536h5.376v2.24c0 1.216.32 2.24.64 2.24.384 0 .64-.96.64-2.176 0-2.112.128-2.24 2.56-2.432 1.408-.128 2.56-.512 2.56-.832 0-.704-16.768-1.28-17.472-.576z"/><path d="M8.96 23.296c0 3.52 1.216 4.224 7.36 4.224s7.36-.704 7.36-4.224c0-1.536-.32-2.176-.96-2.176-.576 0-.96.576-.96 1.536 0 3.584-4.864 3.904-5.568.384-.32-1.856-.512-1.92-3.776-1.92H8.96v2.176zM12.928 30.528c.384 2.048 6.912 1.856 6.912-.128 0-.704-.832-.96-3.584-.96-3.008 0-3.52.192-3.328 1.088z"/></symbol><symbol id="icon-fb" viewBox="0 0 16 32"><path d="M14.266 15.97H10.09v15.39H3.763V15.97H.754v-5.409h3.009v-3.5c0-2.503 1.182-6.422 6.384-6.422l4.687.02v5.25h-3.401c-.558 0-1.342.28-1.342 1.474v3.183h4.729l-.553 5.403z"/></symbol><symbol id="icon-github" viewBox="0 0 32 32"><path d="M16 .941C7.729.941.941 7.729.941 16c0 7.058 4.953 13.47 11.529 15.059v-4.982c-.652.143-1.251.147-1.915-.049-.89-.263-1.613-.855-2.15-1.759-.342-.577-.949-1.203-1.581-1.157l-.155-1.758c1.368-.117 2.551.833 3.254 2.014.312.525.671.832 1.132.968.446.131.924.068 1.481-.129.14-1.116.651-1.534 1.037-2.122v-.001c-3.922-.585-5.486-2.666-6.106-4.308-.822-2.181-.381-4.905 1.073-6.627.028-.034.079-.121.06-.183-.667-2.014.146-3.679.176-3.856.769.228.894-.229 3.342 1.258l.423.254c.177.105.121.045.298.032a12.77 12.77 0 0 1 3.16-.445 12.84 12.84 0 0 1 3.204.456l.137.014c-.012-.002.037-.009.12-.058 3.057-1.852 2.947-1.247 3.767-1.513.03.177.831 1.87.172 3.858-.089.274 2.65 2.782 1.132 6.809-.62 1.643-2.184 3.724-6.106 4.309v.001c.503.766 1.107 1.174 1.104 2.755v6.219C26.106 29.47 31.058 23.058 31.058 16c0-8.271-6.787-15.059-15.059-15.059z"/></symbol><symbol id="icon-telegram" viewBox="0 0 40 32"><path d="m16.205 20.751-.635 8.339c.909 0 1.302-.364 1.774-.802l4.261-3.801 8.829 6.035c1.619.842 2.76.399 3.197-1.39l5.797-25.346c.514-2.234-.866-3.108-2.443-2.56L2.92 13.398c-2.325.842-2.29 2.052-.395 2.6l8.709 2.528L31.463 6.712c.952-.588 1.818-.263 1.106.326L16.205 20.751z"/></symbol><symbol id="icon-btn-close-mob-menu" viewBox="0 0 32 32"><path stroke-width="2" d="m2.519 2 26.963 28M2 29.481 30 2.518"/></symbol><symbol id="icon-burger-btn" viewBox="0 0 46 32"><path stroke-width="2.286" d="M0 2.286h45.714M0 16h45.714M0 29.714h45.714"/></symbol><symbol id="icon-arrow_forward_ios" viewBox="0 0 24 24"><path d="m5.859 4.125 2.156-2.109L17.999 12l-9.984 9.984-2.156-2.109L13.781 12z"/></symbol><symbol id="icon-arrow-right2" viewBox="0 0 32 32"><path d="m19.414 27.414 10-10a2 2 0 0 0 0-2.828l-10-10a2 2 0 1 0-2.828 2.828L23.172 14H4a2 2 0 1 0 0 4h19.172l-6.586 6.586c-.39.39-.586.902-.586 1.414s.195 1.024.586 1.414a2 2 0 0 0 2.828 0z"/></symbol><symbol id="icon-burger-btn-open" viewBox="0 0 46 32"><path fill="none" stroke="#d41443" style="stroke:var(--color1,#d41443)" stroke-width="2.286" d="M0 2.297h45.714M0 16.011h45.714M0 29.725h45.714"/></symbol><symbol id="icon-Vector-1" viewBox="0 0 26 32"><path fill="none" stroke="#d41443" style="stroke:var(--color1,#d41443)" stroke-linejoin="round" stroke-linecap="round" stroke-width="6.4" d="M5.172 3.2 19.341 16 5.172 28.8"/><symbol id="icon-untitled" viewBox="0 0 43 32"><path fill="#d41443" style="fill:var(--color1,#d41443)" d="M32.014 0c1.929 0 3.75.52 5.464 1.561s3.107 2.537 4.179 4.488C42.686 8 43.2 10.298 43.2 12.943s-.643 5.225-1.929 7.74c-.429.911-1.2 2.081-2.314 3.512a63.368 63.368 0 0 1-3.214 3.707L31.693 32 28.8 27.187a22.03 22.03 0 0 0 5.336-4.683c1.543-1.821 2.314-3.491 2.314-5.008 0-.78-.171-1.409-.514-1.886a8.359 8.359 0 0 1-5.014 1.626c-1.329 0-2.593-.412-3.793-1.236a8.555 8.555 0 0 1-2.957-3.122c-.771-1.258-1.157-2.558-1.157-3.902 0-1.518.45-2.97 1.35-4.358a10.222 10.222 0 0 1 3.407-3.382C29.143.412 30.558 0 32.015 0zM8.936 0c1.929 0 3.75.52 5.464 1.561s3.107 2.537 4.179 4.488c1.029 1.951 1.543 4.249 1.543 6.894 0 1.864-.236 3.534-.707 5.008-.471 1.518-1.286 3.1-2.443 4.748-1.114 1.561-2.164 2.862-3.15 3.902-.986 1.084-2.7 2.884-5.143 5.398l-2.893-4.813a22.03 22.03 0 0 0 5.336-4.683c1.543-1.821 2.314-3.491 2.314-5.008 0-.78-.171-1.409-.514-1.886a8.359 8.359 0 0 1-5.014 1.626c-1.329 0-2.593-.412-3.793-1.236a8.555 8.555 0 0 1-2.957-3.122C.387 11.619.001 10.319.001 8.975c0-1.518.429-2.97 1.286-4.358S3.28 2.102 4.694 1.235C6.065.411 7.48-.001 8.937-.001z"/></symbol><symbol id="icon-group-of-circles" viewBox="0 0 256 32"><path fill="#c7133e" style="fill:var(--color1,#c7133e)" d="M144 16c0 8.837-7.163 16-16 16s-16-7.163-16-16 7.163-16 16-16 16 7.163 16 16zM32 16c0 8.837-7.163 16-16 16S0 24.837 0 16 7.163 0 16 0s16 7.163 16 16zM256 16c0 8.837-7.163 16-16 16s-16-7.163-16-16 7.163-16 16-16 16 7.163 16 16z"/></symbol><symbol id="icon-close_40px" viewBox="0 0 32 32"><path d="M23.733 10.304 22.229 8.8l-5.963 5.963L10.303 8.8l-1.504 1.504 5.963 5.963-5.963 5.963 1.504 1.504 5.963-5.963 5.963 5.963 1.504-1.504-5.963-5.963 5.963-5.963z"/></symbol></symbol></defs></svg>