<?xml version="1.0" standalone="no"?>
<!DOCTYPE svg PUBLIC "-//W3C//DTD SVG 20010904//EN"
 "http://www.w3.org/TR/2001/REC-SVG-20010904/DTD/svg10.dtd">
<svg version="1.0" xmlns="http://www.w3.org/2000/svg"
 width="199.000000pt" height="199.000000pt" viewBox="0 0 199.000000 199.000000"
 preserveAspectRatio="xMidYMid meet">
<metadata>
Created by potrace 1.14, written by Peter Selinger 2001-2017
</metadata>
<g transform="translate(0.000000,199.000000) scale(0.100000,-0.100000)"
fill="#000000" stroke="none">
<path d="M766 1975 c4 -8 11 -15 16 -15 6 0 5 6 -2 15 -7 8 -14 15 -16 15 -2
0 -1 -7 2 -15z"/>
<path d="M808 1974 c11 -8 19 -9 23 -2 4 7 9 6 13 -1 8 -13 8 -12 -59 -16
-107 -5 -137 -9 -142 -19 -3 -5 -1 -6 5 -2 7 4 12 1 12 -6 0 -10 3 -9 11 2 8
12 10 12 7 1 -4 -15 -19 -19 -80 -23 -29 -2 -38 -7 -38 -22 0 -12 -5 -16 -15
-12 -16 6 -39 -26 -27 -39 4 -5 2 -5 -5 -1 -7 4 -10 12 -7 20 3 7 -1 13 -9 13
-8 0 -14 -9 -13 -21 1 -15 -5 -21 -24 -21 -14 0 -25 -5 -25 -12 0 -17 -7 -21
-40 -26 -17 -2 -31 -9 -31 -15 -1 -7 -2 -17 -3 -23 0 -6 -10 -8 -23 -3 -13 3
-20 3 -16 -1 12 -13 -11 -45 -27 -39 -11 4 -13 2 -9 -9 3 -8 1 -18 -5 -21 -6
-4 -8 -13 -5 -20 3 -8 1 -17 -4 -20 -5 -3 -9 2 -8 11 0 9 -5 18 -13 21 -9 3
-11 0 -7 -7 4 -7 3 -17 -2 -24 -5 -7 -8 -20 -7 -30 2 -9 0 -15 -5 -12 -17 11
-38 -6 -32 -27 4 -17 2 -20 -15 -16 -16 4 -21 1 -21 -16 -1 -11 -3 -30 -6 -41
-2 -11 -5 -22 -5 -25 -1 -2 -7 2 -13 8 -10 10 -10 15 2 23 13 9 13 10 0 6 -8
-2 -16 -10 -16 -18 -1 -8 -3 -18 -4 -24 -1 -5 -2 -17 -1 -27 1 -9 -3 -20 -10
-24 -7 -4 -9 -3 -6 3 3 5 1 10 -6 10 -11 0 -18 -32 -20 -94 -1 -14 -7 -23 -17
-23 -17 0 -17 0 -21 -107 -3 -63 -5 -69 -17 -52 -7 10 -10 24 -7 29 3 6 2 10
-4 10 -5 0 -9 -13 -9 -30 1 -16 4 -27 8 -25 9 6 23 -25 15 -33 -3 -3 -5 0 -5
6 0 7 -4 12 -9 12 -16 0 -9 -327 8 -342 11 -11 12 -10 2 9 -14 28 -14 36 2 27
8 -5 8 -2 -2 9 -9 11 -10 17 -2 17 6 0 11 -3 12 -7 0 -5 2 -17 4 -28 2 -11 5
-43 6 -72 1 -29 6 -58 11 -65 4 -7 8 -8 8 -3 1 22 20 -22 20 -45 0 -15 6 -32
13 -39 6 -8 7 -11 1 -8 -6 3 -11 0 -11 -8 0 -10 5 -11 17 -5 12 7 16 4 17 -13
2 -44 10 -71 24 -75 8 -2 10 0 4 5 -15 12 -16 30 -1 30 7 0 13 -5 13 -11 -1
-48 5 -64 24 -69 15 -4 20 -11 16 -21 -4 -9 -2 -16 4 -16 6 0 7 -6 3 -12 -5
-9 -2 -9 9 1 9 7 17 12 18 10 0 -2 3 -13 6 -24 2 -11 5 -28 6 -37 1 -9 4 -15
8 -12 11 6 40 -26 34 -37 -4 -5 1 -9 10 -9 23 0 49 -27 32 -33 -6 -3 -3 -5 8
-5 47 -1 67 -15 48 -32 -4 -3 -3 0 0 6 3 6 0 11 -7 11 -7 0 -13 -6 -13 -13 0
-6 7 -11 16 -9 9 1 25 -5 35 -14 11 -9 16 -10 12 -3 -4 6 -3 12 2 12 16 0 22
-13 11 -27 -9 -10 -5 -13 22 -14 19 -1 37 -1 41 0 4 0 5 -6 1 -15 -5 -13 -7
-13 -14 -2 -5 7 -9 8 -9 2 0 -18 13 -24 27 -12 11 9 13 8 11 -3 -2 -9 4 -13
19 -11 14 2 23 -4 27 -15 6 -18 15 -20 90 -26 11 -1 21 -9 23 -17 4 -13 3 -13
-6 0 -8 12 -13 12 -23 2 -6 -6 -10 -13 -8 -13 8 -2 63 -7 98 -8 22 -1 31 -5
26 -13 -4 -7 -3 -8 4 -4 21 13 51 15 58 4 4 -6 3 -8 -2 -5 -6 3 -15 2 -22 -1
-6 -4 70 -8 169 -10 132 -1 178 1 173 10 -5 7 -3 8 7 2 18 -11 89 -12 82 -1
-3 4 -11 6 -19 3 -7 -3 -16 -2 -18 3 -3 4 14 8 37 9 23 1 54 2 70 2 18 1 25 5
21 13 -5 8 -3 8 7 -1 15 -14 33 -16 25 -3 -4 5 -3 11 1 14 5 2 3 3 -3 1 -6 -1
-16 1 -23 5 -7 5 13 8 44 9 32 0 62 5 69 12 8 10 8 11 -1 6 -7 -4 -13 -3 -13
2 0 12 49 30 72 27 9 -2 19 4 22 12 3 8 1 11 -4 8 -6 -3 -10 -1 -10 5 0 7 12
10 28 8 22 -2 27 1 26 19 -1 14 3 20 12 16 8 -3 12 -9 9 -13 -3 -5 -1 -11 4
-15 6 -3 8 3 6 15 -4 19 5 25 34 20 9 -1 12 5 8 19 -4 15 1 21 17 23 13 2 20
10 20 21 -2 13 4 17 20 15 15 -2 21 2 21 17 0 13 8 21 22 23 14 2 23 11 25 25
2 14 9 21 20 19 12 -2 16 3 13 18 -2 11 0 21 6 21 5 1 15 2 21 3 7 0 14 14 15
30 3 42 10 56 26 50 10 -3 14 5 15 32 2 39 21 62 34 41 6 -10 13 49 11 100 -1
7 4 10 9 7 5 -4 7 -15 4 -27 -4 -15 -2 -17 6 -9 16 16 19 42 5 42 -8 0 -7 3 1
9 8 5 14 30 15 64 1 30 5 53 9 51 4 -2 5 -13 3 -24 -2 -12 -1 -18 4 -16 4 3 8
95 10 206 2 155 0 205 -11 217 -7 9 -8 14 -2 10 10 -6 11 8 5 56 -1 5 -5 5
-11 2 -6 -4 -10 13 -10 44 0 34 -4 51 -12 51 -9 0 -8 4 2 11 12 8 12 9 -5 7
-20 -3 -23 5 -26 69 -1 15 -7 20 -21 18 -10 -2 -18 1 -17 8 5 42 -2 68 -18 65
-10 -2 -18 3 -19 10 -1 6 -2 18 -3 26 0 9 -9 13 -20 11 -14 -2 -18 1 -14 11 3
7 9 12 13 9 5 -3 11 -1 15 4 3 6 -3 8 -15 6 -15 -3 -20 1 -20 17 0 11 -8 22
-20 25 -19 5 -25 16 -21 37 1 5 -7 6 -18 3 -15 -3 -20 2 -25 24 -4 20 -10 27
-21 23 -10 -4 -15 0 -15 11 0 9 -9 19 -19 22 -11 3 -21 13 -24 24 -3 11 -14
19 -27 19 -14 0 -19 4 -14 13 6 9 4 9 -8 -1 -13 -10 -17 -10 -22 3 -4 11 -2
14 6 9 7 -4 8 -3 4 4 -4 7 -16 12 -26 12 -10 0 -26 10 -34 22 -10 14 -25 21
-46 20 -28 -1 -30 1 -18 16 9 11 10 14 1 8 -8 -4 -13 -2 -13 4 0 6 -5 8 -10 5
-6 -4 -16 -3 -23 2 -7 5 -28 9 -48 8 -20 0 -36 4 -36 10 0 7 6 12 13 12 7 0
10 -5 7 -10 -3 -6 -1 -7 6 -3 19 12 5 22 -36 25 -21 2 -47 4 -58 5 -14 1 -19
7 -17 21 2 16 1 17 -7 5 -5 -8 -8 -17 -5 -21 2 -4 -7 -6 -21 -5 -25 1 -25 1
-5 16 21 16 21 16 -3 15 -12 -1 -29 -5 -37 -10 -8 -5 -11 -4 -6 3 5 8 -46 11
-178 10 -151 -1 -182 -4 -168 -14z m-218 -94 c0 -5 -2 -10 -4 -10 -3 0 -8 5
-11 10 -3 6 -1 10 4 10 6 0 11 -4 11 -10z m-193 -115 c0 -6 -6 -12 -12 -12 -6
0 -12 6 -12 12 0 6 6 12 12 12 6 0 12 -6 12 -12z m1388 -166 c-4 -5 -12 -9
-18 -8 -9 0 -8 2 1 6 6 2 9 10 6 15 -4 7 -2 8 5 4 6 -4 9 -12 6 -17z m192
-394 c0 -8 -4 -12 -9 -9 -5 3 -6 10 -3 15 9 13 12 11 12 -6z m-1951 -191 c1
-9 0 -13 -4 -10 -3 4 -7 14 -8 22 -1 9 0 13 4 10 3 -4 7 -14 8 -22z m9 -154
c3 -6 -1 -7 -9 -4 -18 7 -21 14 -7 14 6 0 13 -4 16 -10z m1795 -449 c0 -4 -7
-8 -15 -8 -16 0 -20 9 -9 20 8 8 24 -1 24 -12z m-1552 -86 c-3 -3 -9 2 -12 12
-6 14 -5 15 5 6 7 -7 10 -15 7 -18z m1347 -115 c3 -6 -1 -7 -9 -4 -18 7 -21
14 -7 14 6 0 13 -4 16 -10z m-1030 -118 c-3 -3 -11 0 -18 7 -9 10 -8 11 6 5
10 -3 15 -9 12 -12z"/>
<path d="M206 1622 c-3 -5 1 -9 9 -9 8 0 12 4 9 9 -3 4 -7 8 -9 8 -2 0 -6 -4
-9 -8z"/>
<path d="M45 1330 c3 -5 8 -10 11 -10 2 0 4 5 4 10 0 6 -5 10 -11 10 -5 0 -7
-4 -4 -10z"/>
<path d="M40 646 c0 -2 7 -7 16 -10 8 -3 12 -2 9 4 -6 10 -25 14 -25 6z"/>
</g>
</svg>
